<svg xmlns="http://www.w3.org/2000/svg" viewBox="0 0 612 612" xml:space="preserve">
	<path
		d="M511 86a160 160 0 0 0-61-16h-46v-1c0-27-13-48-36-60a88 88 0 0 0-34-9h-57c-1 0-17 1-33 9a64 64 0 0 0-36 60v1h-47c-1 0-31 1-60 16-28 14-62 44-62 103 0 10 8 18 18 18h15l67 391c1 8 9 14 17 14h300c8 0 16-6 17-14l67-391h15c10 0 18-8 18-18 0-59-34-89-62-103zM75 172c5-24 18-43 41-55 21-11 43-13 46-13h288c3 0 24 2 45 13 23 12 37 30 42 55H75zM243 69c0-13 5-23 16-28 9-5 18-6 20-6h54c2 0 11 1 20 6 11 5 17 15 17 28v1H242l1-1zm198 508H171l-64-370h398l-64 370z" />
	<path
		d="M306 520c10 0 17-8 17-18V258a17 17 0 0 0-34 0v244c0 10 7 18 17 18zM204 504a17 17 0 0 0 34-3l-21-245a17 17 0 1 0-35 3l22 245zM389 520h2c9 0 16-7 17-16l22-245a17 17 0 1 0-35-3l-21 245c-1 9 6 18 15 19z" />
</svg>